<svg xmlns="http://www.w3.org/2000/svg" xmlns:xlink="http://www.w3.org/1999/xlink" viewBox="0 0 80 33.93"><defs><style>.cls-1{fill:url(#linear-gradient);}.cls-2{fill:url(#linear-gradient-2);}.cls-3{fill:url(#linear-gradient-3);}.cls-4{fill:url(#linear-gradient-4);}.cls-5{fill:url(#linear-gradient-5);}.cls-6{fill:url(#linear-gradient-6);}.cls-7{fill:url(#linear-gradient-7);}.cls-8{fill:url(#linear-gradient-8);}.cls-9{fill:url(#linear-gradient-9);}.cls-10{fill:url(#linear-gradient-10);}.cls-11{fill:url(#linear-gradient-11);}.cls-12{fill:url(#linear-gradient-12);}.cls-13{fill:url(#linear-gradient-13);}.cls-14{fill:url(#linear-gradient-14);}.cls-15{fill:url(#linear-gradient-15);}.cls-16{fill:#6b11ff;}</style><linearGradient id="linear-gradient" x1="4.55" y1="4.53" x2="4.55" y2="30.08" gradientUnits="userSpaceOnUse"><stop offset="0.4" stop-color="#9011ff"/><stop offset="1" stop-color="#6b11ff"/></linearGradient><linearGradient id="linear-gradient-2" x1="13.03" y1="4.53" x2="13.03" y2="30.08" xlink:href="#linear-gradient"/><linearGradient id="linear-gradient-3" x1="23.45" y1="4.53" x2="23.45" y2="30.08" xlink:href="#linear-gradient"/><linearGradient id="linear-gradient-4" x1="33.23" y1="4.53" x2="33.23" y2="30.08" xlink:href="#linear-gradient"/><linearGradient id="linear-gradient-5" x1="41.31" y1="4.53" x2="41.31" y2="30.08" xlink:href="#linear-gradient"/><linearGradient id="linear-gradient-6" x1="49.53" y1="4.53" x2="49.53" y2="30.08" xlink:href="#linear-gradient"/><linearGradient id="linear-gradient-7" x1="59.66" y1="4.53" x2="59.66" y2="30.08" xlink:href="#linear-gradient"/><linearGradient id="linear-gradient-8" x1="69.44" y1="4.53" x2="69.44" y2="30.08" xlink:href="#linear-gradient"/><linearGradient id="linear-gradient-9" x1="5.87" y1="4.53" x2="5.87" y2="30.08" xlink:href="#linear-gradient"/><linearGradient id="linear-gradient-10" x1="17.43" y1="4.53" x2="17.43" y2="30.08" xlink:href="#linear-gradient"/><linearGradient id="linear-gradient-11" x1="28.49" y1="4.53" x2="28.49" y2="30.08" xlink:href="#linear-gradient"/><linearGradient id="linear-gradient-12" x1="40.21" y1="4.53" x2="40.21" y2="30.08" xlink:href="#linear-gradient"/><linearGradient id="linear-gradient-13" x1="54.45" y1="4.53" x2="54.45" y2="30.08" xlink:href="#linear-gradient"/><linearGradient id="linear-gradient-14" x1="65.67" y1="4.53" x2="65.67" y2="30.08" xlink:href="#linear-gradient"/><linearGradient id="linear-gradient-15" x1="74.35" y1="4.53" x2="74.35" y2="30.08" xlink:href="#linear-gradient"/></defs><title>logo</title><g id="Layer_2" data-name="Layer 2"><g id="Layer_1-2" data-name="Layer 1"><path class="cls-1" d="M1.62,7.87H.49c-.23,0-.34-.51-.34-1.53S.26,4.81.49,4.81H1.62v-.5c0-1.63.34-2.76,1-3.38A4.1,4.1,0,0,1,5.51,0,7.43,7.43,0,0,1,8.76.67c.12,0,.18.21.18.49a4.15,4.15,0,0,1-.39,1.37c-.26.63-.48,1-.67,1.08a3,3,0,0,0-1.61-.48c-.6,0-.89.4-.89,1.2v.48H7.29c.27,0,.41.49.41,1.47S7.52,7.9,7.17,7.9H5.7v8.15q0,.27-2,.27t-2-.27Z"/><path class="cls-2" d="M9.54,8A4.15,4.15,0,0,1,8.9,6.09c0-.48.13-.8.39-.93a9,9,0,0,1,3.6-.58,4.17,4.17,0,0,1,3.24,1.07,4.67,4.67,0,0,1,.94,3.17v3.64h.78a.66.66,0,0,1,.61.46,2.88,2.88,0,0,1,.22,1.26,3.41,3.41,0,0,1-.4,1.59,1.22,1.22,0,0,1-1.09.78,3,3,0,0,1-2-.66,2,2,0,0,1-.53-.67,3.93,3.93,0,0,1-3.29,1.33,3.8,3.8,0,0,1-2.83-1.19,4,4,0,0,1-1.15-2.84c0-2.5,1.49-3.75,4.49-3.75h1.26V8.54c0-.4-.06-.66-.19-.77A1.52,1.52,0,0,0,12,7.6,11.88,11.88,0,0,0,9.54,8Zm1.84,4.23a1,1,0,0,0,.28.77,1,1,0,0,0,.7.27,1.06,1.06,0,0,0,.77-.35V11.12h-.64A1,1,0,0,0,11.38,12.2Z"/><path class="cls-3" d="M23.19,10.61c0,1.51.57,2.26,1.71,2.26a3.58,3.58,0,0,0,1.84-.44c.23,0,.42.4.56,1.19a10.43,10.43,0,0,1,.22,1.61,1,1,0,0,1-.11.56,6.28,6.28,0,0,1-3.34.76A4.76,4.76,0,0,1,20.47,15,6.05,6.05,0,0,1,19,10.67a6.5,6.5,0,0,1,1.46-4.41,4.91,4.91,0,0,1,3.89-1.68,4.11,4.11,0,0,1,3.38,1.18,1.17,1.17,0,0,1,.2.74,5.06,5.06,0,0,1-.18,1.21q-.42,1.47-1.08,1.71l-.27,0c-.11,0-.25-.09-.42-.28a2.46,2.46,0,0,0-1.44-.9,1.13,1.13,0,0,0-.93.56A3.08,3.08,0,0,0,23.19,10.61Z"/><path class="cls-4" d="M37.31,15.7a7.28,7.28,0,0,1-3.73.85A5.29,5.29,0,0,1,29.73,15a5.81,5.81,0,0,1-1.56-4.31,6.37,6.37,0,0,1,1.51-4.43,4.88,4.88,0,0,1,3.81-1.68A5,5,0,0,1,37,5.76,3.74,3.74,0,0,1,38.3,8.61q0,3.73-4.29,3.73H32.43a1.08,1.08,0,0,0,.38,1,2,2,0,0,0,1.11.26A6.64,6.64,0,0,0,37,12.82s.09.1.21.33a3.56,3.56,0,0,1,.55,1.66A.88.88,0,0,1,37.31,15.7ZM34.43,9.05a.85.85,0,0,0-.94-1,1.08,1.08,0,0,0-.75.27.93.93,0,0,0-.31.77v.71h1.24A.68.68,0,0,0,34.43,9.05Z"/><path class="cls-5" d="M43.41,16.14c0,.14-.79.21-2.35.21-1.23,0-1.84-.08-1.84-.19V4.55c0-.23.74-.35,2.23-.35,1.3,0,2,.12,2,.23Z"/><path class="cls-6" d="M53.61,15.7a7.28,7.28,0,0,1-3.73.85A5.27,5.27,0,0,1,46,15a5.81,5.81,0,0,1-1.56-4.31A6.41,6.41,0,0,1,46,6.26a4.91,4.91,0,0,1,3.81-1.68,5,5,0,0,1,3.56,1.18A3.74,3.74,0,0,1,54.6,8.61q0,3.73-4.29,3.73H48.72a1.11,1.11,0,0,0,.38,1,2,2,0,0,0,1.12.26,6.64,6.64,0,0,0,3.06-.74s.09.1.21.33A3.56,3.56,0,0,1,54,14.81.88.88,0,0,1,53.61,15.7ZM50.73,9.05a.85.85,0,0,0-.95-1,1.07,1.07,0,0,0-.74.27.94.94,0,0,0-.32.77v.71H50A.68.68,0,0,0,50.73,9.05Z"/><path class="cls-7" d="M56,12.18a6.33,6.33,0,0,0,3,1.13c.46,0,.69-.16.69-.49s-.4-.53-1.2-.89q-2.88-1.18-2.88-3.85a3,3,0,0,1,1.25-2.6,4.92,4.92,0,0,1,3-.9A10,10,0,0,1,62.73,5c.81.25,1.21.57,1.21,1a2.83,2.83,0,0,1-.49,1.33,2.81,2.81,0,0,1-.68.9,4.32,4.32,0,0,0-2.14-.55c-.42,0-.62.14-.62.43a.6.6,0,0,0,.24.48,4.21,4.21,0,0,0,.88.48c.43.19.79.36,1.07.52a6.64,6.64,0,0,1,1,.64,2.78,2.78,0,0,1,1.1,2.28,3.86,3.86,0,0,1-1.22,3,5.22,5.22,0,0,1-3.68,1.14,7.67,7.67,0,0,1-3-.55c-.89-.37-1.33-.87-1.33-1.52a3.38,3.38,0,0,1,.31-1.36A2.17,2.17,0,0,1,56,12.18Z"/><path class="cls-8" d="M65.78,12.18a6.4,6.4,0,0,0,3,1.13c.46,0,.69-.16.69-.49s-.4-.53-1.2-.89a4,4,0,0,1-2.87-3.85,3,3,0,0,1,1.24-2.6,4.94,4.94,0,0,1,3-.9,10.1,10.1,0,0,1,3,.37c.8.25,1.21.57,1.21,1a2.87,2.87,0,0,1-.5,1.33,2.81,2.81,0,0,1-.68.9,4.29,4.29,0,0,0-2.14-.55c-.41,0-.62.14-.62.43a.6.6,0,0,0,.24.48,4.36,4.36,0,0,0,.89.48c.43.19.78.36,1.07.52a7.2,7.2,0,0,1,1,.64,2.79,2.79,0,0,1,1.11,2.28,3.9,3.9,0,0,1-1.22,3,5.23,5.23,0,0,1-3.68,1.14,7.67,7.67,0,0,1-3-.55c-.89-.37-1.34-.87-1.34-1.52a3.38,3.38,0,0,1,.31-1.36A2.36,2.36,0,0,1,65.78,12.18Z"/><path class="cls-9" d="M5.55,33.64c0,.1-.66.16-2,.16s-2-.06-2-.16V21.78H.83c-.37,0-.62-.34-.76-1A3.83,3.83,0,0,1,0,19.94a3,3,0,0,1,.32-1.2,1.55,1.55,0,0,1,1.48-1A2.5,2.5,0,0,1,3,18a3.13,3.13,0,0,1,.78.57c.15.18.22.28.22.32a5.33,5.33,0,0,1,3.34-1.2,4.05,4.05,0,0,1,3.08,1.39,6.19,6.19,0,0,1,1.29,4.31,7,7,0,0,1-1.29,4.51,4,4,0,0,1-3.27,1.6,13.45,13.45,0,0,1-1.63-.09Zm.94-11.88a1.32,1.32,0,0,0-.76.25v4.08a5.57,5.57,0,0,0,.64,0h.38c.62-.06.94-.87.94-2.42Q7.69,21.76,6.49,21.76Z"/><path class="cls-10" d="M21.5,28.83a7.35,7.35,0,0,1-3.73.85,5.22,5.22,0,0,1-3.84-1.56,5.76,5.76,0,0,1-1.57-4.3,6.4,6.4,0,0,1,1.51-4.43,4.91,4.91,0,0,1,3.81-1.68,5,5,0,0,1,3.56,1.17,3.77,3.77,0,0,1,1.25,2.85q0,3.73-4.28,3.73H16.62a1.11,1.11,0,0,0,.38,1,1.93,1.93,0,0,0,1.12.26A6.69,6.69,0,0,0,21.18,26s.08.09.21.32a3.6,3.6,0,0,1,.55,1.67A.89.89,0,0,1,21.5,28.83Zm-2.88-6.66a.84.84,0,0,0-.94-1,1.11,1.11,0,0,0-.75.26,1,1,0,0,0-.31.77V23h1.24A.68.68,0,0,0,18.62,22.17Z"/><path class="cls-11" d="M28.22,29.31c0,.11-.55.16-1.65.16-1.54,0-2.31-.13-2.31-.25V21.76h-.59c-.4,0-.66-.34-.79-1a3.9,3.9,0,0,1,0-.59,4,4,0,0,1,.27-1.43,1.37,1.37,0,0,1,1.29-1,2.94,2.94,0,0,1,1.57.41,2.46,2.46,0,0,1,.92.83,5.13,5.13,0,0,1,3.45-1.24,3.56,3.56,0,0,1,2.9,1.08,5.53,5.53,0,0,1,.9,3.54v6.91c0,.18-.66.28-2,.28s-2-.1-2-.28V22.59c0-.77-.26-1.15-.8-1.15a1.65,1.65,0,0,0-.65.19,3.84,3.84,0,0,0-.53.29Z"/><path class="cls-12" d="M39.76,29.45A4.26,4.26,0,0,1,36.31,28a6.41,6.41,0,0,1-1.22-4.26,6,6,0,0,1,1.6-4.42,5.72,5.72,0,0,1,4.25-1.6,7.65,7.65,0,0,1,4.39,1.17V30.37A3,3,0,0,1,44,33a6.3,6.3,0,0,1-3.55.91,12.41,12.41,0,0,1-3.86-.55,2.51,2.51,0,0,1-.23-1,3.85,3.85,0,0,1,.48-2.17,8.1,8.1,0,0,0,3.29.67c.84,0,1.27-.3,1.27-.9v-.69A8.58,8.58,0,0,1,39.76,29.45Zm1.06-8c-1,0-1.54.78-1.54,2.33,0,1,.19,1.59.59,1.88a1.3,1.3,0,0,0,.79.3,2.87,2.87,0,0,0,.69-.07V21.55A2,2,0,0,0,40.82,21.48Z"/><path class="cls-13" d="M58.77,18.05c0-.14.43-.21,1.27-.21,1.9,0,2.84.06,2.81.19L60.59,29.22c0,.24-.9.36-2.55.36s-2.51-.12-2.56-.36l-.94-5.16-1.18,5.16c0,.23-.92.34-2.63.34s-2.59-.14-2.64-.41L46,17.94c0-.1.62-.14,2-.14a10.42,10.42,0,0,1,2,.09l1.06,7.78L53,18c0-.09.54-.14,1.52-.14s1.49.05,1.52.14L58,25.58Z"/><path class="cls-14" d="M67.78,21.3c0,.11-.71.16-2.11.16a6.19,6.19,0,0,1-2.11-.14V18c0-.16.7-.23,2.11-.23s2.11,0,2.11.14Zm0,8c0,.12-.71.18-2.11.18s-2.11,0-2.11-.16V22.68c0-.11.7-.16,2.11-.16a6.24,6.24,0,0,1,2.11.14Z"/><path class="cls-15" d="M74.08,29.31c0,.11-.55.16-1.65.16-1.54,0-2.31-.13-2.31-.25V21.76h-.59c-.4,0-.66-.34-.79-1a3.9,3.9,0,0,1,0-.59A4,4,0,0,1,69,18.72a1.37,1.37,0,0,1,1.29-1,3,3,0,0,1,1.57.41,2.54,2.54,0,0,1,.92.83,5.13,5.13,0,0,1,3.45-1.24,3.56,3.56,0,0,1,2.9,1.08,5.53,5.53,0,0,1,.9,3.54v6.91c0,.18-.66.28-2,.28s-2-.1-2-.28V22.59c0-.77-.27-1.15-.8-1.15a1.65,1.65,0,0,0-.65.19,3.84,3.84,0,0,0-.53.29Z"/><path class="cls-16" d="M69.12,32.59a1.42,1.42,0,0,1,.17-.67,1.25,1.25,0,0,1,.46-.48,1.21,1.21,0,0,1,.64-.18,1.18,1.18,0,0,1,.63.18,1.25,1.25,0,0,1,.46.48,1.42,1.42,0,0,1,.17.67,1.37,1.37,0,0,1-.16.66,1.27,1.27,0,0,1-.46.49,1.12,1.12,0,0,1-.64.19,1.15,1.15,0,0,1-.65-.19,1.21,1.21,0,0,1-.46-.49A1.34,1.34,0,0,1,69.12,32.59Zm.15,0a1.2,1.2,0,0,0,.15.59,1.06,1.06,0,0,0,.41.43,1,1,0,0,0,.56.16,1,1,0,0,0,.54-.15,1.16,1.16,0,0,0,.42-.43,1.26,1.26,0,0,0,0-1.19,1.13,1.13,0,0,0-.41-.43,1.08,1.08,0,0,0-.55-.15,1,1,0,0,0-.57.16,1,1,0,0,0-.4.43A1.17,1.17,0,0,0,69.27,32.59Zm1.66.22a.53.53,0,0,1-.15.41.54.54,0,0,1-.41.15.53.53,0,0,1-.43-.19.77.77,0,0,1-.17-.51V32.5a.71.71,0,0,1,.17-.49.53.53,0,0,1,.43-.19.55.55,0,0,1,.41.14.53.53,0,0,1,.15.41h-.18a.34.34,0,0,0-.38-.39.4.4,0,0,0-.31.14.67.67,0,0,0-.11.39v.17a.63.63,0,0,0,.11.38.37.37,0,0,0,.31.14.39.39,0,0,0,.28-.09.38.38,0,0,0,.1-.3Z"/><path class="cls-16" d="M74.28,33.89H72.9v-.17l.74-1a2.45,2.45,0,0,0,.26-.43A.77.77,0,0,0,74,32a.62.62,0,0,0-.11-.39.39.39,0,0,0-.33-.14.43.43,0,0,0-.35.16.73.73,0,0,0-.13.43h-.19a.87.87,0,0,1,.18-.56.68.68,0,0,1,1,0,.73.73,0,0,1,.17.52,1.37,1.37,0,0,1-.28.73l-.11.16-.64.85h1.14Z"/><path class="cls-16" d="M76,32.81a1.58,1.58,0,0,1-.17.83.54.54,0,0,1-.5.28.55.55,0,0,1-.5-.28,1.6,1.6,0,0,1-.17-.81v-.46a1.72,1.72,0,0,1,.16-.83.6.6,0,0,1,1,0,1.56,1.56,0,0,1,.17.8Zm-.2-.47a1.49,1.49,0,0,0-.12-.67.37.37,0,0,0-.35-.22.37.37,0,0,0-.35.21,1.36,1.36,0,0,0-.13.64v.53a1.51,1.51,0,0,0,.12.67.38.38,0,0,0,.36.24.37.37,0,0,0,.35-.23,1.44,1.44,0,0,0,.12-.66Z"/><path class="cls-16" d="M77.3,33.89h-.2V31.56l-.59.26v-.2l.76-.33h0Z"/><path class="cls-16" d="M79.52,32a.65.65,0,0,1-.1.36.6.6,0,0,1-.26.24.69.69,0,0,1,.31.25.76.76,0,0,1,.1.39.72.72,0,0,1-.19.53.75.75,0,0,1-1,0,.72.72,0,0,1-.19-.53.71.71,0,0,1,.1-.39.72.72,0,0,1,.3-.25.67.67,0,0,1-.26-.24.69.69,0,0,1-.09-.36.77.77,0,0,1,.17-.51.61.61,0,0,1,.47-.19.58.58,0,0,1,.46.19A.72.72,0,0,1,79.52,32Zm-.15,1.24a.52.52,0,0,0-.14-.39.43.43,0,0,0-.35-.16.48.48,0,0,0-.36.15.59.59,0,0,0-.14.4.53.53,0,0,0,.14.39.51.51,0,0,0,.72,0A.53.53,0,0,0,79.37,33.2ZM79.32,32a.52.52,0,0,0-.13-.37.37.37,0,0,0-.31-.14.39.39,0,0,0-.32.14.55.55,0,0,0-.12.37.53.53,0,0,0,.12.37.44.44,0,0,0,.64,0A.55.55,0,0,0,79.32,32Z"/></g></g></svg>