<svg xmlns="http://www.w3.org/2000/svg" viewBox="0 0 25 30"><defs><style>.cls-1,.cls-2{fill:#9011ff;}.cls-1{opacity:0.5;}.cls-3{fill:#1a1a1a;}</style></defs><title>FB</title><g id="Layer_2" data-name="Layer 2"><g id="Layer_1-2" data-name="Layer 1"><polygon class="cls-1" points="22.5 7.5 20 7.5 20 5 5 5 5 7.5 2.5 7.5 2.5 10 0 10 0 25 2.5 25 2.5 27.5 5 27.5 5 30 20 30 20 27.5 22.5 27.5 22.5 25 25 25 25 10 22.5 10 22.5 7.5"/><polygon class="cls-2" points="22.5 2.5 20 2.5 20 0 5 0 5 2.5 2.5 2.5 2.5 5 0 5 0 20 2.5 20 2.5 22.5 5 22.5 5 25 20 25 20 22.5 22.5 22.5 22.5 20 25 20 25 5 22.5 5 22.5 2.5"/><path id="f" class="cls-3" d="M13.71,20.31V13.19H16.1l.36-2.78H13.71V8.64c0-.81.22-1.36,1.38-1.36h1.47V4.8a20.91,20.91,0,0,0-2.15-.11,3.34,3.34,0,0,0-3.57,3.67v2.05H8.44v2.78h2.4v7.12Z"/></g></g></svg>