<svg xmlns="http://www.w3.org/2000/svg" viewBox="0 0 25 30"><defs><style>.cls-1,.cls-2{fill:#9011ff;}.cls-1{opacity:0.5;}.cls-3{fill:#1a1a1a;}</style></defs><title>GH</title><g id="Layer_2" data-name="Layer 2"><g id="Layer_1-2" data-name="Layer 1"><polygon class="cls-1" points="22.5 7.5 20 7.5 20 5 5 5 5 7.5 2.5 7.5 2.5 10 0 10 0 25 2.5 25 2.5 27.5 5 27.5 5 30 20 30 20 27.5 22.5 27.5 22.5 25 25 25 25 10 22.5 10 22.5 7.5"/><polygon class="cls-2" points="22.5 2.5 20 2.5 20 0 5 0 5 2.5 2.5 2.5 2.5 5 0 5 0 20 2.5 20 2.5 22.5 5 22.5 5 25 20 25 20 22.5 22.5 22.5 22.5 20 25 20 25 5 22.5 5 22.5 2.5"/><path class="cls-3" d="M14.68,15.33c2.11-.23,4.32-1,4.32-4.67a3.7,3.7,0,0,0-1-2.54,3.42,3.42,0,0,0-.1-2.5s-.79-.25-2.6,1A9.28,9.28,0,0,0,13,6.27a9.4,9.4,0,0,0-2.37.32c-1.8-1.22-2.6-1-2.6-1a3.39,3.39,0,0,0-.09,2.5,3.66,3.66,0,0,0-1,2.54c0,3.63,2.2,4.44,4.31,4.68a2,2,0,0,0-.6,1.26,2,2,0,0,1-2.76-.78,2,2,0,0,0-1.45-1s-.92,0-.06.58a2.5,2.5,0,0,1,1,1.38s.55,1.84,3.19,1.27v.82a.51.51,0,0,0,.51.51h3.69a.51.51,0,0,0,.51-.51V17.08A2.25,2.25,0,0,0,14.68,15.33Z"/></g></g></svg>