<svg xmlns="http://www.w3.org/2000/svg" viewBox="0 0 25 30"><defs><style>.cls-1,.cls-2{fill:#9011ff;}.cls-1{opacity:0.5;}.cls-3{fill:#1a1a1a;}</style></defs><title>IN</title><g id="Layer_2" data-name="Layer 2"><g id="Layer_1-2" data-name="Layer 1"><polygon class="cls-1" points="22.5 7.5 20 7.5 20 5 5 5 5 7.5 2.5 7.5 2.5 10 0 10 0 25 2.5 25 2.5 27.5 5 27.5 5 30 20 30 20 27.5 22.5 27.5 22.5 25 25 25 25 10 22.5 10 22.5 7.5"/><polygon class="cls-2" points="22.5 2.5 20 2.5 20 0 5 0 5 2.5 2.5 2.5 2.5 5 0 5 0 20 2.5 20 2.5 22.5 5 22.5 5 25 20 25 20 22.5 22.5 22.5 22.5 20 25 20 25 5 22.5 5 22.5 2.5"/><path class="cls-3" d="M6.46,10.4H9.05v8.34H6.46ZM7.75,6.26a1.51,1.51,0,1,1-1.5,1.5,1.5,1.5,0,0,1,1.5-1.5"/><path class="cls-3" d="M10.67,10.4h2.49v1.14h0a2.73,2.73,0,0,1,2.45-1.34c2.63,0,3.11,1.72,3.11,4v4.57H16.16v-4c0-1,0-2.21-1.35-2.21s-1.55,1-1.55,2.14v4.12H10.67Z"/></g></g></svg>