<svg xmlns="http://www.w3.org/2000/svg" viewBox="0 0 25 30"><defs><style>.cls-1,.cls-2{fill:#9011ff;}.cls-1{opacity:0.5;}.cls-3{fill:#1a1a1a;}</style></defs><title>TW</title><g id="Layer_2" data-name="Layer 2"><g id="Layer_1-2" data-name="Layer 1"><polygon class="cls-1" points="22.5 7.5 20 7.5 20 5 5 5 5 7.5 2.5 7.5 2.5 10 0 10 0 25 2.5 25 2.5 27.5 5 27.5 5 30 20 30 20 27.5 22.5 27.5 22.5 25 25 25 25 10 22.5 10 22.5 7.5"/><polygon class="cls-2" points="22.5 2.5 20 2.5 20 0 5 0 5 2.5 2.5 2.5 2.5 5 0 5 0 20 2.5 20 2.5 22.5 5 22.5 5 25 20 25 20 22.5 22.5 22.5 22.5 20 25 20 25 5 22.5 5 22.5 2.5"/><path class="cls-3" d="M10,18a7.88,7.88,0,0,0,7.93-7.93c0-.12,0-.24,0-.36a5.59,5.59,0,0,0,1.39-1.44,5.25,5.25,0,0,1-1.6.43,2.77,2.77,0,0,0,1.23-1.54,5.76,5.76,0,0,1-1.77.68,2.79,2.79,0,0,0-4.82,1.91,2.65,2.65,0,0,0,.07.63A7.92,7.92,0,0,1,6.65,7.49a2.77,2.77,0,0,0-.38,1.4,2.8,2.8,0,0,0,1.24,2.32,2.74,2.74,0,0,1-1.26-.35v0a2.78,2.78,0,0,0,2.24,2.73,3,3,0,0,1-.74.1,3,3,0,0,1-.52-.05,2.79,2.79,0,0,0,2.6,1.94,5.61,5.61,0,0,1-3.46,1.19,4.78,4.78,0,0,1-.66,0A7.86,7.86,0,0,0,10,18"/></g></g></svg>