<svg xmlns="http://www.w3.org/2000/svg" viewBox="0 0 20 21.82"><defs><style>.cls-1,.cls-2{fill:#9011ff;}.cls-1{opacity:0.5;}</style></defs><title>Heart</title><g id="Layer_2" data-name="Layer 2"><g id="Layer_1-2" data-name="Layer 1"><polygon class="cls-1" points="18.18 7.27 18.18 5.46 16.36 5.46 16.36 3.64 14.54 3.64 12.73 3.64 12.73 5.46 10.91 5.46 10.91 7.27 9.09 7.27 9.09 5.46 7.27 5.46 7.27 3.64 5.46 3.64 3.64 3.64 3.64 5.46 1.82 5.46 1.82 7.27 0 7.27 0 9.09 0 10.91 0 12.73 1.82 12.73 1.82 14.54 3.64 14.54 3.64 16.36 5.46 16.36 5.46 18.18 7.27 18.18 7.27 20 9.09 20 9.09 21.82 10.91 21.82 10.91 20 12.73 20 12.73 18.18 14.54 18.18 14.54 16.36 16.36 16.36 16.36 14.54 18.18 14.54 18.18 12.73 20 12.73 20 10.91 20 9.09 20 7.27 18.18 7.27"/><polygon class="cls-2" points="18.18 3.64 18.18 1.82 16.36 1.82 16.36 0 14.54 0 12.73 0 12.73 1.82 10.91 1.82 10.91 3.64 9.09 3.64 9.09 1.82 7.27 1.82 7.27 0 5.46 0 3.64 0 3.64 1.82 1.82 1.82 1.82 3.64 0 3.64 0 5.46 0 7.27 0 9.09 1.82 9.09 1.82 10.91 3.64 10.91 3.64 12.73 5.46 12.73 5.46 14.54 7.27 14.54 7.27 16.36 9.09 16.36 9.09 18.18 10.91 18.18 10.91 16.36 12.73 16.36 12.73 14.54 14.54 14.54 14.54 12.73 16.36 12.73 16.36 10.91 18.18 10.91 18.18 9.09 20 9.09 20 7.27 20 5.46 20 3.64 18.18 3.64"/></g></g></svg>