<svg xmlns="http://www.w3.org/2000/svg" viewBox="0 0 35 38"><defs><style>.cls-1,.cls-3{fill:#9011ff;}.cls-2,.cls-3{opacity:0.5;}</style></defs><title>left_press</title><g id="Layer_2" data-name="Layer 2"><g id="Layer_1-2" data-name="Layer 1"><rect class="cls-1" x="1" y="31.98" width="1" height="1"/><g class="cls-2"><rect class="cls-1" x="3" y="34.98" width="29" height="3" transform="translate(-0.06 0.03) rotate(-0.1)"/><rect class="cls-1" x="34" y="32" width="1" height="2.97" transform="matrix(1, 0, 0, 1, -0.06, 0.06)"/><rect class="cls-1" x="33" y="33" width="1" height="2.97" transform="matrix(1, 0, 0, 1, -0.06, 0.06)"/><rect class="cls-1" x="32" y="34" width="1" height="2.97" transform="translate(-0.06 0.06) rotate(-0.1)"/><rect class="cls-1" x="-0.98" y="32.99" width="2.97" height="1" transform="translate(-32.99 33.93) rotate(-89.9)"/><rect class="cls-1" x="0.02" y="33.99" width="2.97" height="1" transform="translate(-32.99 35.93) rotate(-89.9)"/><rect class="cls-1" x="1.01" y="34.99" width="2.97" height="1" transform="translate(-32.99 37.92) rotate(-89.9)"/></g><rect class="cls-1" y="3" width="1" height="28.98"/><rect class="cls-1" x="34" y="3" width="1" height="28.98"/><rect class="cls-1" x="17" y="-14" width="1" height="28.99" transform="translate(18 -17) rotate(90)"/><rect class="cls-1" x="17" y="19.98" width="1" height="28.99" transform="translate(51.98 16.98) rotate(90)"/><rect class="cls-1" x="1" y="2" width="1" height="1"/><rect class="cls-1" x="2" y="32.98" width="1" height="1"/><rect class="cls-1" x="32" y="32.98" width="1" height="1"/><rect class="cls-1" x="33" y="31.98" width="1" height="1"/><rect class="cls-1" x="2" y="1" width="1" height="1"/><rect class="cls-1" x="32" y="1" width="1" height="1"/><rect class="cls-1" x="33" y="2" width="1" height="1"/><polygon class="cls-1" points="19 10.99 18 10.99 18 11.99 17 11.99 17 12.99 16 12.99 16 13.99 15 13.99 15 14.99 14 14.99 14 15.99 13 15.99 13 17.99 14 17.99 14 16.99 15 16.99 15 15.99 16 15.99 16 14.99 17 14.99 17 13.99 18 13.99 18 12.99 19 12.99 19 11.99 20 11.99 20 9.99 19 9.99 19 10.99"/><polygon class="cls-3" points="19 11.99 19 12.99 18 12.99 18 13.99 17 13.99 17 14.99 16 14.99 16 15.99 15 15.99 15 16.99 14 16.99 14 17.99 13 17.99 13 18.99 14 18.99 14 19.99 15 19.99 15 20.98 16 20.98 16 21.98 17 21.98 17 22.98 18 22.98 18 23.98 19 23.98 19 24.98 20 24.98 20 23.98 20 22.98 20 11.99 19 11.99"/><rect class="cls-3" x="1" y="3" width="1" height="3"/><rect class="cls-3" x="33" y="3" width="1" height="3"/><rect class="cls-3" x="2" y="2" width="1" height="3"/><rect class="cls-3" x="32" y="2" width="1" height="3"/><rect class="cls-3" x="3" y="1" width="28.99" height="3"/></g></g></svg>