<svg xmlns="http://www.w3.org/2000/svg" viewBox="0 0 35 38"><defs><style>.cls-1,.cls-3{fill:#9011ff;}.cls-2,.cls-3{opacity:0.5;}</style></defs><title>right_press</title><g id="Layer_2" data-name="Layer 2"><g id="Layer_1-2" data-name="Layer 1"><rect class="cls-1" x="33" y="31.98" width="1" height="1" transform="translate(66.99 64.95) rotate(180)"/><g class="cls-2"><rect class="cls-1" x="16" y="21.98" width="3" height="29" transform="translate(-19.01 53.91) rotate(-89.9)"/><rect class="cls-1" x="-0.98" y="32.99" width="2.97" height="1" transform="translate(-32.99 33.93) rotate(-89.9)"/><rect class="cls-1" x="0.02" y="33.99" width="2.97" height="1" transform="translate(-32.99 35.93) rotate(-89.9)"/><rect class="cls-1" x="1.01" y="34.99" width="2.97" height="1" transform="translate(-32.99 37.92) rotate(-89.9)"/><rect class="cls-1" x="34" y="32" width="1" height="2.97" transform="translate(-0.06 0.06) rotate(-0.1)"/><rect class="cls-1" x="33" y="33" width="1" height="2.97" transform="translate(-0.06 0.06) rotate(-0.1)"/><rect class="cls-1" x="32" y="34" width="1" height="2.97" transform="translate(-0.06 0.06) rotate(-0.1)"/></g><rect class="cls-1" x="34" y="3" width="1" height="28.98" transform="translate(68.99 34.98) rotate(180)"/><rect class="cls-1" y="3" width="1" height="28.98" transform="translate(1.01 34.98) rotate(180)"/><rect class="cls-1" x="17" y="-14" width="1" height="28.99" transform="translate(18 -17) rotate(90)"/><rect class="cls-1" x="17" y="19.98" width="1" height="28.99" transform="translate(51.98 16.98) rotate(90)"/><rect class="cls-1" x="33" y="2" width="1" height="1" transform="translate(66.99 5) rotate(180)"/><rect class="cls-1" x="32" y="32.98" width="1" height="1" transform="translate(64.99 66.95) rotate(180)"/><rect class="cls-1" x="2" y="32.98" width="1" height="1" transform="translate(5.01 66.95) rotate(180)"/><rect class="cls-1" x="1" y="31.98" width="1" height="1" transform="translate(3.01 64.95) rotate(180)"/><rect class="cls-1" x="32" y="1" width="1" height="1" transform="translate(64.99 3) rotate(180)"/><rect class="cls-1" x="2" y="1" width="1" height="1" transform="translate(5.01 3) rotate(180)"/><rect class="cls-1" x="1" y="2" width="1" height="1" transform="translate(3.01 5) rotate(180)"/><polygon class="cls-1" points="21 15.99 21 14.99 20 14.99 20 13.99 19 13.99 19 12.99 18 12.99 18 11.99 17 11.99 17 10.99 16 10.99 16 9.99 15 9.99 15 11.99 16 11.99 16 12.99 17 12.99 17 13.99 18 13.99 18 14.99 19 14.99 19 15.99 20 15.99 20 16.99 21 16.99 21 17.99 22 17.99 22 15.99 21 15.99"/><polygon class="cls-3" points="21 17.99 21 16.99 20 16.99 20 15.99 19 15.99 19 14.99 18 14.99 18 13.99 17 13.99 17 12.99 16 12.99 16 11.99 15 11.99 15 22.98 15 23.98 15 24.98 16 24.98 16 23.98 17 23.98 17 22.98 18 22.98 18 21.98 19 21.98 19 20.98 20 20.98 20 19.99 21 19.99 21 18.99 22 18.99 22 17.99 21 17.99"/><rect class="cls-3" x="1" y="3" width="1" height="3"/><rect class="cls-3" x="33" y="3" width="1" height="3"/><rect class="cls-3" x="2" y="2" width="1" height="3"/><rect class="cls-3" x="32" y="2" width="1" height="3"/><rect class="cls-3" x="3" y="1" width="28.99" height="3"/></g></g></svg>